<?xml version="1.0" encoding="UTF-8"?>
<svg width="211px" height="69px" viewBox="0 0 211 69" version="1.1" xmlns="http://www.w3.org/2000/svg" xmlns:xlink="http://www.w3.org/1999/xlink">
    <title>744EC043-054C-430C-94F4-5D7D88393613</title>
    <defs>
        <radialGradient cx="50%" cy="50%" fx="50%" fy="50%" r="215.21358%" gradientTransform="translate(0.500000,0.500000),scale(0.240642,1.000000),translate(-0.500000,-0.500000)" id="radialGradient-1">
            <stop stop-color="#FFBF5D" offset="0%"></stop>
            <stop stop-color="#FF9A00" offset="100%"></stop>
        </radialGradient>
        <rect id="path-2" x="0" y="-1.42108547e-14" width="187" height="45" rx="22.5"></rect>
        <filter x="-5.1%" y="-21.1%" width="110.2%" height="142.2%" filterUnits="objectBoundingBox" id="filter-3">
            <feMorphology radius="2" operator="dilate" in="SourceAlpha" result="shadowSpreadOuter1"></feMorphology>
            <feOffset dx="0" dy="0" in="shadowSpreadOuter1" result="shadowOffsetOuter1"></feOffset>
            <feGaussianBlur stdDeviation="2.5" in="shadowOffsetOuter1" result="shadowBlurOuter1"></feGaussianBlur>
            <feComposite in="shadowBlurOuter1" in2="SourceAlpha" operator="out" result="shadowBlurOuter1"></feComposite>
            <feColorMatrix values="0 0 0 0 1   0 0 0 0 0.97254902   0 0 0 0 0.866666667  0 0 0 0.551027098 0" type="matrix" in="shadowBlurOuter1"></feColorMatrix>
        </filter>
    </defs>
    <g id="ITrace" stroke="none" stroke-width="1" fill="none" fill-rule="evenodd">
        <g id="320_how_it_works-copy" transform="translate(-55.000000, -1168.000000)">
            <g id="2" transform="translate(0.000000, 565.000000)">
                <g id="Buttons/Appstore/Mobile" transform="translate(55.000000, 603.000000)">
                    <g id="AppStore" transform="translate(12.000000, 12.000000)">
                        <g id="Rectangle">
                            <use fill="black" fill-opacity="1" filter="url(#filter-3)" xlink:href="#path-2"></use>
                            <rect stroke-opacity="0.28630354" stroke="#FFFFFF" stroke-width="2" fill="url(#radialGradient-1)" fill-rule="evenodd" x="-1" y="-1" width="189" height="47" rx="23.5"></rect>
                        </g>
                        <path d="M73.0227169,15.87936 C73.0750601,15.87872 73.1454068,15.8776 73.2337569,15.876 C73.381007,15.8733333 73.5227006,15.864 73.6588375,15.848 C74.1422625,15.792 74.5520624,15.6306667 74.8882373,15.364 C75.2244121,15.0973333 75.4800162,14.7586667 75.6550494,14.348 C75.8300825,13.9373333 75.9175991,13.488 75.9175991,13 C75.9175991,12.512 75.8300825,12.0626667 75.6550494,11.652 C75.4800162,11.2413333 75.2244121,10.9026667 74.8882373,10.636 C74.5520624,10.3693333 74.1422625,10.208 73.6588375,10.152 C73.5227006,10.136 73.381007,10.1266667 73.2337569,10.124 C73.0865068,10.1213333 72.9892661,10.12 72.9420349,10.12 L72.9420349,10.12 L71,10.12 L71,15.88 L73.0227169,15.87936 Z M73.0032444,14.855625 L72.1502181,14.856 L72.1502181,11.144 L72.9420349,11.144 C73.0170491,11.144 73.1184573,11.1453333 73.2462593,11.148 C73.3740613,11.1506667 73.4893609,11.1626667 73.5921582,11.184 C73.8449839,11.232 74.0547459,11.3453333 74.2214442,11.524 C74.3881425,11.7026667 74.5124716,11.9213333 74.5944316,12.18 C74.6763916,12.4386667 74.7173716,12.712 74.7173716,13 C74.7173716,13.2746667 74.6777807,13.5413333 74.598599,13.8 C74.5194174,14.0586667 74.3971719,14.28 74.2318628,14.464 C74.0665537,14.648 73.8533188,14.7653333 73.5921582,14.816 C73.4893609,14.8346667 73.3740613,14.846 73.2462593,14.85 C73.1184573,14.854 73.0170491,14.856 72.9420349,14.856 L73.0032444,14.855625 Z M78.9431728,16 C79.3932582,16 79.7898612,15.9033333 80.1329818,15.71 C80.4761024,15.5166667 80.7442088,15.2486667 80.937301,14.906 C81.1303931,14.5633333 81.2269392,14.168 81.2269392,13.72 C81.2269392,13.2746667 81.1310877,12.8806667 80.9393847,12.538 C80.7476817,12.1953333 80.4802699,11.9266667 80.1371493,11.732 C79.7940286,11.5373333 79.3960365,11.44 78.9431728,11.44 C78.4986441,11.44 78.105514,11.536 77.7637825,11.728 C77.4220511,11.92 77.1539447,12.1873333 76.9594634,12.53 C76.764982,12.8726667 76.6677414,13.2693333 76.6677414,13.72 C76.6677414,14.1653333 76.7628983,14.5593333 76.9532122,14.902 C77.143526,15.2446667 77.4095487,15.5133333 77.7512802,15.708 C78.0930116,15.9026667 78.4903092,16 78.9431728,16 Z M78.9431728,14.984 C78.5903282,14.984 78.3229163,14.87 78.1409374,14.642 C77.9589584,14.414 77.867969,14.1066667 77.867969,13.72 C77.867969,13.4693333 77.9061707,13.2493333 77.982574,13.06 C78.0589774,12.8706667 78.1763608,12.7226667 78.3347241,12.616 C78.4930875,12.5093333 78.6959037,12.456 78.9431728,12.456 C79.3015741,12.456 79.5717643,12.5706667 79.7537432,12.8 C79.9357222,13.0293333 80.0267116,13.336 80.0267116,13.72 C80.0267116,14.0906667 79.9371113,14.394 79.7579107,14.63 C79.57871,14.866 79.3071308,14.984 78.9431728,14.984 Z M83.9691259,15.88 L84.9526457,13.064 L85.9361655,15.88 L86.8029966,15.88 L88.1782573,11.56 L87.0697138,11.56 L86.2528922,14.136 L85.4235683,11.56 L84.4817231,11.56 L83.6523991,14.136 L82.8355776,11.56 L81.7270341,11.552 L83.1022948,15.88 L83.9691259,15.88 Z M90.0702828,15.88 L90.0702828,13.688 C90.0702828,13.4186667 90.1015387,13.2026667 90.1640505,13.04 C90.2265624,12.8773333 90.3064387,12.754 90.4036793,12.67 C90.50092,12.586 90.6051064,12.5293333 90.7162386,12.5 C90.8273708,12.4706667 90.9315572,12.456 91.0287979,12.456 C91.2705104,12.456 91.4573513,12.508 91.5893208,12.612 C91.7212903,12.716 91.8164472,12.8453333 91.8747916,13 C91.933136,13.1546667 91.9678648,13.3086667 91.978978,13.462 C91.9900912,13.6153333 91.9956479,13.7413333 91.9956479,13.84 L91.9956479,13.84 L91.9956479,15.88 L93.145866,15.88 L93.1451992,13.40768 C93.1434211,13.3364267 93.1380867,13.2378667 93.1291961,13.112 C93.1180829,12.9546667 93.0861324,12.7806667 93.0333446,12.59 C92.9805568,12.3993333 92.8923457,12.216 92.7687111,12.04 C92.6450766,11.864 92.4721271,11.7186667 92.2498627,11.604 C92.0275984,11.4893333 91.7400438,11.432 91.3871991,11.432 C90.9454487,11.432 90.5794071,11.524 90.2890743,11.708 C90.1646459,11.7868571 90.0536129,11.8762449 89.9559754,11.9761633 L89.9278947,12.0073333 L89.9285892,11.56 L88.9200647,11.56 L88.9200647,15.88 L90.0702828,15.88 Z M95.4463022,15.88 L95.4463022,10 L94.3127539,10 L94.3127539,15.88 L95.4463022,15.88 Z M98.7219233,16 C99.1720086,16 99.5686116,15.9033333 99.9117322,15.71 C100.254853,15.5166667 100.522959,15.2486667 100.716051,14.906 C100.909144,14.5633333 101.00569,14.168 101.00569,13.72 C101.00569,13.2746667 100.909838,12.8806667 100.718135,12.538 C100.526432,12.1953333 100.25902,11.9266667 99.9158997,11.732 C99.5727791,11.5373333 99.1747869,11.44 98.7219233,11.44 C98.2773946,11.44 97.8842645,11.536 97.542533,11.728 C97.2008015,11.92 96.9326951,12.1873333 96.7382138,12.53 C96.5437325,12.8726667 96.4464918,13.2693333 96.4464918,13.72 C96.4464918,14.1653333 96.5416488,14.5593333 96.7319626,14.902 C96.9222765,15.2446667 97.1882992,15.5133333 97.5300306,15.708 C97.8717621,15.9026667 98.2690596,16 98.7219233,16 Z M98.7219233,14.984 C98.3690786,14.984 98.1016668,14.87 97.9196878,14.642 C97.7377089,14.414 97.6467194,14.1066667 97.6467194,13.72 C97.6467194,13.4693333 97.6849211,13.2493333 97.7613245,13.06 C97.8377279,12.8706667 97.9551112,12.7226667 98.1134746,12.616 C98.2718379,12.5093333 98.4746542,12.456 98.7219233,12.456 C99.0803246,12.456 99.3505147,12.5706667 99.5324937,12.8 C99.7144726,13.0293333 99.8054621,13.336 99.8054621,13.72 C99.8054621,14.0906667 99.7158618,14.394 99.5366611,14.63 C99.3574605,14.866 99.0858812,14.984 98.7219233,14.984 Z M103.172767,16 C103.56173,16 103.883319,15.9353333 104.137534,15.806 C104.319116,15.713619 104.491838,15.5800816 104.655702,15.4053878 L104.705697,15.3493333 L104.706391,15.88 L105.698246,15.88 L105.698246,13.24 C105.698246,13.0426667 105.689911,12.864 105.673241,12.704 C105.656572,12.544 105.603784,12.384 105.514878,12.224 C105.356515,11.936 105.123137,11.7333333 104.814745,11.616 C104.506353,11.4986667 104.153509,11.44 103.756211,11.44 C103.214442,11.44 102.786583,11.552 102.472635,11.776 C102.158686,12 101.944757,12.2906667 101.830846,12.648 L101.830846,12.648 L102.856041,12.96 C102.928276,12.7626667 103.054689,12.6253333 103.235279,12.548 C103.415869,12.4706667 103.589513,12.432 103.756211,12.432 C104.056268,12.432 104.270198,12.492 104.398,12.612 C104.489287,12.6977143 104.547971,12.8181224 104.574053,12.9732245 L104.579284,13.0206667 L104.494893,13.0325 C104.414669,13.044 104.336269,13.0552083 104.259692,13.066125 L104.035431,13.098 C103.743709,13.1393333 103.482548,13.1826667 103.251949,13.228 C103.02135,13.2733333 102.822701,13.3253333 102.656003,13.384 C102.41429,13.4693333 102.221893,13.5753333 102.07881,13.702 C101.935727,13.8286667 101.832235,13.9746667 101.768334,14.14 C101.704433,14.3053333 101.672483,14.488 101.672483,14.688 C101.672483,14.928 101.730133,15.1473333 101.845432,15.346 C101.960732,15.5446667 102.130208,15.7033333 102.353862,15.822 C102.577515,15.9406667 102.850484,16 103.172767,16 Z M103.41448,15.144 C103.283899,15.144 103.171378,15.1253333 103.076916,15.088 C102.982453,15.0506667 102.909523,14.9966667 102.858124,14.926 C102.806726,14.8553333 102.781026,14.7706667 102.781026,14.672 C102.781026,14.6 102.797002,14.5346667 102.828952,14.476 C102.860903,14.4173333 102.910912,14.3633333 102.978981,14.314 C103.047049,14.2646667 103.136649,14.2186667 103.247781,14.176 C103.345022,14.1413333 103.457543,14.1093333 103.585345,14.08 C103.713148,14.0506667 103.881235,14.018 104.089608,13.982 C104.193794,13.964 104.313956,13.9438333 104.450093,13.9215 L104.570254,13.902 L104.569386,13.9435 C104.568171,13.976 104.566651,14.010125 104.564828,14.045875 L104.558447,14.158 C104.548723,14.314 104.514688,14.4506667 104.456344,14.568 C104.425783,14.6293333 104.368133,14.7053333 104.283395,14.796 C104.198656,14.8866667 104.084746,14.9673333 103.941663,15.038 C103.79858,15.1086667 103.622853,15.144 103.41448,15.144 Z M108.607131,16 C109.054438,16 109.42812,15.9 109.728177,15.7 L109.728177,15.7 L109.823334,15.6313333 L109.824028,15.88 L110.824218,15.88 L110.824218,10.12 L109.682335,10.12 L109.68164,11.7013333 L109.63226,11.6696875 C109.400706,11.5384375 109.130863,11.4634375 108.822732,11.4446875 L108.665475,11.44 C108.234838,11.44 107.859767,11.5386667 107.540262,11.736 C107.220757,11.9333333 106.972793,12.2033333 106.796371,12.546 C106.619949,12.8886667 106.531738,13.28 106.531738,13.72 C106.531738,14.152 106.61856,14.54 106.792204,14.884 C106.965848,15.228 107.208255,15.5 107.519425,15.7 C107.830595,15.9 108.193164,16 108.607131,16 Z M108.790499,15.032 C108.546008,15.032 108.34597,14.9733333 108.190385,14.856 C108.0348,14.7386667 107.919501,14.5806667 107.844486,14.382 C107.769472,14.1833333 107.731965,13.9626667 107.731965,13.72 C107.731965,13.48 107.770861,13.2606667 107.848654,13.062 C107.926446,12.8633333 108.046608,12.7046667 108.209139,12.586 C108.37167,12.4673333 108.579348,12.408 108.832174,12.408 C109.06833,12.408 109.259338,12.4626667 109.405199,12.572 C109.55106,12.6813333 109.65733,12.8346667 109.72401,13.032 C109.790689,13.2293333 109.824028,13.4586667 109.824028,13.72 C109.824028,13.9813333 109.790689,14.2106667 109.72401,14.408 C109.65733,14.6053333 109.548282,14.7586667 109.396864,14.868 C109.245447,14.9773333 109.043325,15.032 108.790499,15.032 Z M115.683473,16 C116.133558,16 116.530161,15.9033333 116.873282,15.71 C117.216402,15.5166667 117.484509,15.2486667 117.677601,14.906 C117.870693,14.5633333 117.967239,14.168 117.967239,13.72 C117.967239,13.2746667 117.871388,12.8806667 117.679685,12.538 C117.487982,12.1953333 117.22057,11.9266667 116.877449,11.732 C116.534329,11.5373333 116.136337,11.44 115.683473,11.44 C115.238944,11.44 114.845814,11.536 114.504083,11.728 C114.162351,11.92 113.894245,12.1873333 113.699763,12.53 C113.505282,12.8726667 113.408041,13.2693333 113.408041,13.72 C113.408041,14.1653333 113.503198,14.5593333 113.693512,14.902 C113.883826,15.2446667 114.149849,15.5133333 114.49158,15.708 C114.833312,15.9026667 115.230609,16 115.683473,16 Z M115.683473,14.984 C115.330628,14.984 115.063216,14.87 114.881237,14.642 C114.699258,14.414 114.608269,14.1066667 114.608269,13.72 C114.608269,13.4693333 114.646471,13.2493333 114.722874,13.06 C114.799277,12.8706667 114.916661,12.7226667 115.075024,12.616 C115.233388,12.5093333 115.436204,12.456 115.683473,12.456 C116.041874,12.456 116.312064,12.5706667 116.494043,12.8 C116.676022,13.0293333 116.767012,13.336 116.767012,13.72 C116.767012,14.0906667 116.677411,14.394 116.498211,14.63 C116.31901,14.866 116.047431,14.984 115.683473,14.984 Z M120.025963,15.88 L120.025963,13.688 C120.025963,13.4186667 120.057219,13.2026667 120.119731,13.04 C120.182243,12.8773333 120.262119,12.754 120.35936,12.67 C120.4566,12.586 120.560787,12.5293333 120.671919,12.5 C120.783051,12.4706667 120.887237,12.456 120.984478,12.456 C121.226191,12.456 121.413032,12.508 121.545001,12.612 C121.67697,12.716 121.772127,12.8453333 121.830472,13 C121.888816,13.1546667 121.923545,13.3086667 121.934658,13.462 C121.945771,13.6153333 121.951328,13.7413333 121.951328,13.84 L121.951328,13.84 L121.951328,15.88 L123.101546,15.88 L123.101546,13.456 C123.101546,13.384 123.09599,13.2693333 123.084876,13.112 C123.073763,12.9546667 123.041813,12.7806667 122.989025,12.59 C122.936237,12.3993333 122.848026,12.216 122.724391,12.04 C122.600757,11.864 122.427807,11.7186667 122.205543,11.604 C121.983279,11.4893333 121.695724,11.432 121.342879,11.432 C120.901129,11.432 120.535087,11.524 120.244754,11.708 C120.120326,11.7868571 120.009293,11.8762449 119.911656,11.9761633 L119.884269,12.0066667 L119.884269,11.56 L118.875745,11.56 L118.875745,15.88 L120.025963,15.88 Z M127.637823,15.954 C127.936491,15.9606667 128.24141,15.936 128.55258,15.88 L128.55258,15.88 L128.55258,14.976 C128.285863,15.0106667 128.042761,15.0213333 127.823275,15.008 C127.603789,14.9946667 127.444036,14.912 127.344017,14.76 C127.291229,14.68 127.262752,14.5726667 127.258584,14.438 C127.254417,14.3033333 127.252333,14.152 127.252333,13.984 L127.252333,13.984 L127.252333,12.4006667 L128.55258,12.4 L128.55258,11.56 L127.252333,11.56 L127.252333,10.36 L126.118785,10.36 L126.118785,11.56 L125.351973,11.56 L125.351973,12.4 L126.118785,12.4006667 L126.119306,14.236875 C126.12,14.359375 126.12139,14.4750417 126.123473,14.583875 L126.12712,14.742 C126.132676,14.946 126.191021,15.1466667 126.302153,15.344 C126.424398,15.5546667 126.602905,15.7073333 126.837671,15.802 C127.072438,15.8966667 127.339155,15.9473333 127.637823,15.954 Z M130.694653,15.88 L130.694653,13.688 C130.694653,13.4186667 130.725909,13.2026667 130.78842,13.04 C130.850932,12.8773333 130.930809,12.754 131.028049,12.67 C131.12529,12.586 131.229476,12.5293333 131.340608,12.5 C131.451741,12.4706667 131.555927,12.456 131.653168,12.456 C131.89488,12.456 132.081721,12.508 132.213691,12.612 C132.34566,12.716 132.440817,12.8453333 132.499161,13 C132.557506,13.1546667 132.592235,13.3086667 132.603348,13.462 C132.614461,13.6153333 132.620018,13.7413333 132.620018,13.84 L132.620018,13.84 L132.620018,15.88 L133.770236,15.88 L133.770236,13.456 C133.770236,13.384 133.764679,13.2693333 133.753566,13.112 C133.742453,12.9546667 133.710502,12.7806667 133.657714,12.59 C133.604927,12.3993333 133.516716,12.216 133.393081,12.04 C133.269446,11.864 133.096497,11.7186667 132.874233,11.604 C132.651968,11.4893333 132.364414,11.432 132.011569,11.432 C131.569819,11.432 131.203777,11.524 130.913444,11.708 C130.789016,11.7868571 130.677983,11.8762449 130.580345,11.9761633 L130.552959,12.0066667 L130.552959,10.12 L129.544435,10.12 L129.544435,15.88 L130.694653,15.88 Z M138.983724,14.024 C139.030956,13.5013333 138.975389,13.0466667 138.817026,12.66 C138.658663,12.2733333 138.414172,11.9733333 138.083554,11.76 C137.752935,11.5466667 137.35147,11.44 136.879159,11.44 C136.43463,11.44 136.0415,11.5366667 135.699768,11.73 C135.358037,11.9233333 135.08993,12.1946667 134.895449,12.544 C134.700968,12.8933333 134.603727,13.304 134.603727,13.776 C134.603727,14.208 134.703052,14.5913333 134.9017,14.926 C135.100349,15.2606667 135.375401,15.5233333 135.726857,15.714 C136.078312,15.9046667 136.484639,16 136.945838,16 C137.379253,16 137.778635,15.8906667 138.143982,15.672 C138.509329,15.4533333 138.776741,15.1466667 138.946217,14.752 L138.946217,14.752 L137.812669,14.44 C137.72932,14.616 137.608464,14.7506667 137.4501,14.844 C137.291737,14.9373333 137.101423,14.984 136.879159,14.984 C136.526314,14.984 136.258902,14.874 136.076923,14.654 C135.963186,14.5165 135.884992,14.3433229 135.842341,14.1344687 L135.823403,14.024 L138.437788,14.024 L138.983724,14.024 Z M137.836979,13.216 L135.853964,13.216 L135.857874,13.1969383 C135.893821,13.043786 135.947741,12.9118354 136.019634,12.8010864 L136.076923,12.722 C136.258902,12.4966667 136.542984,12.384 136.929168,12.384 C137.259786,12.384 137.498026,12.4806667 137.643887,12.674 C137.724921,12.7814074 137.783445,12.9268807 137.81946,13.1104198 L137.836979,13.216 Z" id="Downloadonthe" fill="#FFFFFF" fill-rule="nonzero"></path>
                        <path d="M73.0279557,31.5503449 L73.6877311,29.3943105 L77.6153432,29.3943105 L78.2861551,31.5503449 L80.3141108,31.5503449 L77.1273233,21.2013796 L74.1867875,21.2013796 L71,31.5503449 L73.0279557,31.5503449 Z M77.0476536,27.568868 L74.2471434,27.568868 L75.636362,23.0329822 L77.0476536,27.568868 Z M83.341559,23.7886209 L81.6033112,23.7886209 L81.6033112,35 L83.5878107,35 L83.5874658,31.2786161 L83.6535337,31.3204867 C84.0992291,31.5877637 84.6305798,31.734766 85.2475859,31.7614937 L85.4564271,31.7659483 C86.1758685,31.7659483 86.8059833,31.5862788 87.3467715,31.2269397 C87.8875597,30.8676007 88.3088433,30.3788995 88.6106224,29.7608363 C88.9124016,29.1427731 89.0632911,28.4456553 89.0632911,27.6694829 C89.0632911,26.878937 88.9099873,26.1758302 88.6033797,25.5601626 C88.2967722,24.9444949 87.8658316,24.4593872 87.310558,24.1048393 C86.7552844,23.7502914 86.1034415,23.5730175 85.3550293,23.5730175 C84.6114455,23.5730175 83.9861592,23.752687 83.4791702,24.1120261 L83.4791702,24.1120261 L83.3412141,24.2157211 L83.341559,23.7886209 Z M85.1377483,30.0267472 C84.6983579,30.0267472 84.347087,29.9285279 84.0839356,29.7320892 C83.8207842,29.5356505 83.6312669,29.2601572 83.5153837,28.9056093 C83.3995006,28.5510614 83.341559,28.1390193 83.341559,27.6694829 C83.341559,27.1999465 83.3995006,26.7879044 83.5153837,26.4333565 C83.6312669,26.0788086 83.8159557,25.8033153 84.0694502,25.6068766 C84.3229447,25.4104379 84.6549017,25.3122186 85.0653213,25.3122186 C85.5047117,25.3122186 85.8656395,25.4188225 86.1481048,25.6320304 C86.4305701,25.8452382 86.6394012,26.1303139 86.7745983,26.4872574 C86.9097953,26.8442008 86.9773938,27.238276 86.9773938,27.6694829 C86.9773938,28.105481 86.9122095,28.5019518 86.781841,28.8588952 C86.6514724,29.2158387 86.451091,29.4997166 86.1806969,29.7105288 C85.9103029,29.9213411 85.5626533,30.0267472 85.1377483,30.0267472 Z M92.3804472,23.7886209 L90.6421995,23.7886209 L90.6421995,35 L92.626699,35 L92.6263541,31.2786161 L92.692422,31.3204867 C93.1381173,31.5877637 93.6694681,31.734766 94.2864742,31.7614937 L94.4953153,31.7659483 C95.2147567,31.7659483 95.8448715,31.5862788 96.3856597,31.2269397 C96.9264479,30.8676007 97.3477316,30.3788995 97.6495107,29.7608363 C97.9512898,29.1427731 98.1021794,28.4456553 98.1021794,27.6694829 C98.1021794,26.878937 97.9488756,26.1758302 97.642268,25.5601626 C97.3356604,24.9444949 96.9047198,24.4593872 96.3494462,24.1048393 C95.7941727,23.7502914 95.1423298,23.5730175 94.3939175,23.5730175 C93.6503338,23.5730175 93.0250474,23.752687 92.5180585,24.1120261 L92.5180585,24.1120261 L92.3801023,24.2157211 L92.3804472,23.7886209 Z M94.1766366,30.0267472 C93.7372462,30.0267472 93.3859753,29.9285279 93.1228239,29.7320892 C92.8596725,29.5356505 92.6701552,29.2601572 92.554272,28.9056093 C92.4383888,28.5510614 92.3804472,28.1390193 92.3804472,27.6694829 C92.3804472,27.1999465 92.4383888,26.7879044 92.554272,26.4333565 C92.6701552,26.0788086 92.854844,25.8033153 93.1083385,25.6068766 C93.3618329,25.4104379 93.69379,25.3122186 94.1042096,25.3122186 C94.5436,25.3122186 94.9045278,25.4188225 95.1869931,25.6320304 C95.4694583,25.8452382 95.6782895,26.1303139 95.8134865,26.4872574 C95.9486836,26.8442008 96.0162821,27.238276 96.0162821,27.6694829 C96.0162821,28.105481 95.9510978,28.5019518 95.8207292,28.8588952 C95.6903606,29.2158387 95.4899793,29.4997166 95.2195852,29.7105288 C94.9491911,29.9213411 94.6015416,30.0267472 94.1766366,30.0267472 Z M106.532681,31.7659483 C107.063812,31.7659483 107.579251,31.6988717 108.078997,31.5647185 C108.578743,31.4305652 109.026584,31.2281375 109.422518,30.9574354 C109.818452,30.6867333 110.133509,30.3441634 110.36769,29.9297257 C110.601871,29.515288 110.718961,29.0301802 110.718961,28.4744024 C110.718961,27.952163 110.621184,27.5209561 110.425632,27.1807818 C110.230079,26.8406075 109.981413,26.566312 109.679634,26.3578953 C109.377854,26.1494786 109.062797,25.9865783 108.734461,25.8691942 C108.406126,25.7518101 108.106761,25.6571841 107.836367,25.5853163 L107.836367,25.5853163 L106.025692,25.0966152 C105.803583,25.0391209 105.586302,24.9672531 105.373849,24.8810117 C105.161397,24.7947703 104.985158,24.6809796 104.845132,24.5396396 C104.705107,24.3982996 104.635094,24.2150366 104.635094,23.9898508 C104.635094,23.7455002 104.720799,23.534688 104.89221,23.357414 C105.06362,23.1801401 105.28573,23.044789 105.558538,22.9513609 C105.831346,22.8579327 106.122261,22.8160098 106.431283,22.8255922 C106.745133,22.8351746 107.045705,22.8998556 107.332999,23.0196353 C107.620293,23.139415 107.867752,23.3142934 108.075376,23.5442704 C108.283,23.7742474 108.42544,24.0569274 108.502695,24.3923106 L108.502695,24.3923106 L110.632049,24.0329715 C110.463052,23.3861612 110.18783,22.838768 109.806381,22.3907919 C109.424932,21.9428159 108.951742,21.6014438 108.386812,21.3666756 C107.821881,21.1319074 107.179695,21.0097321 106.460254,21.0001497 C105.745641,20.9953585 105.093798,21.1055559 104.504725,21.3307417 C103.915652,21.5559275 103.444877,21.8984974 103.092399,22.3584514 C102.739921,22.8184054 102.563682,23.3957435 102.563682,24.0904658 C102.563682,24.5839581 102.646973,24.9924068 102.813555,25.315812 C102.980137,25.6392172 103.188968,25.8991391 103.440048,26.0955778 C103.691129,26.2920165 103.950659,26.4429389 104.218639,26.548345 C104.486618,26.6537511 104.722006,26.7352013 104.924802,26.7926956 L104.924802,26.7926956 L107.633571,27.5832415 C107.836367,27.645527 108.004156,27.7149992 108.136939,27.7916582 C108.269722,27.8683172 108.372326,27.9497674 108.444753,28.0360088 C108.51718,28.1222501 108.569086,28.2144805 108.600471,28.3126999 C108.631857,28.4109192 108.647549,28.5127319 108.647549,28.6181381 C108.647549,28.9056093 108.549773,29.1475643 108.35422,29.344003 C108.158667,29.5404417 107.908794,29.6889685 107.6046,29.7895834 C107.300407,29.8901984 106.986557,29.9405059 106.66305,29.9405059 C106.083634,29.9405059 105.566988,29.7800011 105.113112,29.4589915 C104.659236,29.1379819 104.359871,28.6804235 104.215017,28.0863162 L104.215017,28.0863162 L102.158091,28.3881611 C102.264317,29.0876745 102.516604,29.6901663 102.914953,30.1956366 C103.313301,30.7011069 103.822704,31.0891931 104.443162,31.3598952 C105.06362,31.6305973 105.760126,31.7659483 106.532681,31.7659483 Z M115.415851,31.6833004 C115.934911,31.6952783 116.464835,31.6509598 117.005624,31.5503449 L117.005624,31.5503449 L117.005624,29.9261323 C116.542091,29.9884177 116.1196,30.0075825 115.738151,29.9836265 C115.356702,29.9596706 115.079066,29.8111438 114.905241,29.5380461 C114.8135,29.3943105 114.764008,29.2014652 114.756766,28.9595102 C114.749523,28.7175552 114.745902,28.4456553 114.745902,28.1438105 L114.745902,28.1438105 L114.745557,25.297845 L117.005624,25.297845 L117.005624,23.7886209 L114.745557,23.7886209 L114.745902,21.6325865 L112.775887,21.6325865 L112.775543,23.7886209 L111.443231,23.7886209 L111.443231,25.297845 L112.775543,25.297845 L112.775887,28.258799 C112.775887,28.6305952 112.778978,28.9709611 112.785158,29.2798969 L112.790373,29.5057056 C112.80003,29.8722314 112.901428,30.2327683 113.094566,30.5873162 C113.307019,30.96582 113.617248,31.2401155 114.025253,31.4102027 C114.433258,31.5802898 114.896791,31.6713224 115.415851,31.6833004 Z M122.263823,31.7659483 C123.046034,31.7659483 123.735298,31.5922678 124.331614,31.2449067 C124.927929,30.8975456 125.393876,30.4160312 125.729454,29.8003636 C126.065033,29.184696 126.232822,28.4744024 126.232822,27.6694829 C126.232822,26.8693546 126.06624,26.1614566 125.733076,25.545789 C125.399912,24.9301214 124.935172,24.4474092 124.338856,24.0976525 C123.742541,23.7478958 123.050863,23.5730175 122.263823,23.5730175 C121.491268,23.5730175 120.808041,23.7455002 120.214139,24.0904658 C119.620238,24.4354313 119.154291,24.9157478 118.816298,25.5314154 C118.478306,26.147083 118.309309,26.8597722 118.309309,27.6694829 C118.309309,28.4696113 118.474684,29.1775092 118.805434,29.7931768 C119.136184,30.4088444 119.59851,30.8915566 120.192411,31.2413133 C120.786312,31.59107 121.476783,31.7659483 122.263823,31.7659483 Z M122.263823,29.9405059 C121.650608,29.9405059 121.185868,29.7356826 120.869603,29.326036 C120.553339,28.9163895 120.395207,28.3642051 120.395207,27.6694829 C120.395207,27.2191113 120.461598,26.8238383 120.594381,26.483664 C120.727164,26.1434897 120.931166,25.8775787 121.206389,25.6859312 C121.481612,25.4942837 121.83409,25.39846 122.263823,25.39846 C122.886695,25.39846 123.356263,25.604481 123.672528,26.0165232 C123.988792,26.4285653 124.146925,26.9795519 124.146925,27.6694829 C124.146925,28.335458 123.991207,28.8804556 123.679771,29.3044757 C123.368335,29.7284958 122.896352,29.9405059 122.263823,29.9405059 Z M129.810715,31.5503449 L129.810715,27.5832415 C129.810715,27.2861879 129.851757,27.0190792 129.933841,26.7819154 C130.015925,26.5447516 130.136637,26.3387305 130.295976,26.1638522 C130.455315,25.9889739 130.650868,25.8488316 130.882635,25.7434255 C131.114401,25.6332282 131.373931,25.5673493 131.661225,25.545789 C131.948519,25.5242287 132.200806,25.5469868 132.418087,25.6140634 L132.418087,25.6140634 L132.418087,23.7886209 C132.181492,23.7598738 131.944897,23.7538848 131.708302,23.770654 C131.471708,23.7874231 131.242355,23.8281482 131.020246,23.8928293 C130.798137,23.9575103 130.592927,24.0473451 130.404617,24.1623336 C130.158365,24.3060692 129.950741,24.4881343 129.781744,24.708529 C129.714146,24.7966868 129.651955,24.8886776 129.595173,24.9845014 L129.564119,25.0411743 L129.564464,23.7886209 L127.826216,23.7886209 L127.826216,31.5503449 L129.810715,31.5503449 Z M140.971714,28.2156783 C141.053798,27.2766055 140.957229,26.459708 140.682006,25.7649858 C140.406784,25.0702636 139.981879,24.531255 139.407291,24.14796 C138.832704,23.764665 138.134991,23.5730175 137.314151,23.5730175 C136.541597,23.5730175 135.858369,23.746698 135.264468,24.0940591 C134.670566,24.4414202 134.204619,24.9289236 133.866627,25.5565692 C133.528634,26.1842147 133.359638,26.9220576 133.359638,27.7700979 C133.359638,28.5462703 133.532255,29.2350035 133.877491,29.8362975 C134.222726,30.4375916 134.700744,30.9095236 135.311545,31.2520935 C135.922346,31.5946634 136.628509,31.7659483 137.430035,31.7659483 C138.183275,31.7659483 138.877367,31.5695097 139.51231,31.1766323 C140.147254,30.7837549 140.611994,30.2327683 140.90653,29.5236725 L140.90653,29.5236725 L138.936516,28.9631036 C138.791662,29.279322 138.581624,29.5212769 138.306401,29.6889685 C138.031179,29.8566601 137.700429,29.9405059 137.314151,29.9405059 C136.700936,29.9405059 136.236196,29.7428694 135.919932,29.3475964 C135.709089,29.0840811 135.568527,28.7476332 135.498246,28.3382529 L135.479679,28.2156783 L140.022921,28.2156783 L140.971714,28.2156783 Z M138.978248,26.7639485 L135.531413,26.7639485 L135.564134,26.628298 C135.630023,26.379256 135.723365,26.1636942 135.84416,25.9816124 L135.919932,25.8763809 C136.236196,25.4715256 136.729907,25.2690979 137.401064,25.2690979 C137.975651,25.2690979 138.389692,25.4427785 138.643187,25.7901396 C138.791058,25.9927669 138.895801,26.2707972 138.957414,26.6242304 L138.978248,26.7639485 Z" fill="#FFFFFF" fill-rule="nonzero"></path>
                        <path d="M58.0895582,15.7426141 L58.3733019,15.7595824 C59.9949496,15.8087191 61.4977343,16.5955189 62.4283162,17.8826306 C60.9598746,18.7569355 60.0562582,20.2988087 60.0340504,21.9680528 C60.0361405,23.8566106 61.2039666,25.5609672 63,26.2966392 C62.6545845,27.3833406 62.1339175,28.4103139 61.4572853,29.339518 C60.5485785,30.6559487 59.5958373,31.9420537 58.0836349,31.9658223 C56.6142749,31.9986649 56.1204792,31.1283775 54.4351782,31.1283775 C52.7340983,31.1283775 52.2077678,31.9420537 50.798514,31.9986649 C49.3583766,32.050318 48.2577733,30.5936319 47.3160432,29.2895491 C45.4338042,26.6263619 43.9681666,21.7842816 45.9330615,18.4896092 C46.855769,16.8838276 48.581,15.8648615 50.4775434,15.8055204 C51.9189802,15.7768032 53.2575563,16.7482869 54.1437819,16.7482869 C55.0132028,16.7482869 56.6671903,15.5861437 58.3733019,15.7595824 Z M58.1403324,11 C58.232245,12.1939192 57.8526694,13.3764548 57.0822145,14.2964764 C56.334736,15.2212661 55.2021502,15.7539439 54.0092996,15.7417299 C53.933438,14.5821846 54.3240554,13.4401985 55.0951166,12.5672995 C55.8759733,11.6825768 56.9632593,11.1229768 58.1403324,11 Z" id="Combined-Shape" fill="#FFFFFF" fill-rule="nonzero"></path>
                    </g>
                </g>
            </g>
        </g>
    </g>
</svg>