<?xml version="1.0" encoding="UTF-8"?>
<svg width="505px" height="234px" viewBox="0 0 505 234" version="1.1" xmlns="http://www.w3.org/2000/svg" xmlns:xlink="http://www.w3.org/1999/xlink">
    <title>F3357D85-6AA3-4C8A-98EB-3191CA68E156</title>
    <defs>
        <rect id="path-1" x="0.542672294" y="0.431108062" width="503.00789" height="232.016949"></rect>
        <path d="M370.548805,-127.90678 C435.736379,-127.90678 488.581349,-75.3021349 488.581349,-10.4110169 C488.581349,-8.04688481 488.511207,-5.69906066 488.372882,-3.36949416 C511.262076,19.2597797 525.435393,50.6178326 525.435393,85.2711864 C525.435393,154.269337 469.245804,210.20339 399.932434,210.20339 C354.866953,210.20339 315.349171,186.558882 293.215326,151.052272 C287.432553,154.00423 280.87736,155.669492 273.931448,155.669492 C258.647988,155.669492 245.256219,147.607038 237.814118,135.521656 C222.013734,134.392616 207.602114,128.270974 196.161844,118.733828 C185.527346,123.971963 173.548554,126.915254 160.87918,126.915254 C125.003047,126.915254 94.6644522,103.314055 84.6769598,70.8578524 C83.6204742,70.9216656 82.5535505,70.95424 81.4789839,70.95424 C55.1865854,70.95424 33.4698346,51.4526568 30.1296046,26.1876007 C20.7547429,23.9186808 13.7939551,15.5054092 13.7939551,5.47375208 C13.7939551,0.752267639 15.3359047,-3.61071303 17.9458673,-7.14340882 C12.2245905,-10.9709922 8.46019363,-17.4729624 8.46019363,-24.8501561 C8.46019363,-36.6236501 18.0480996,-46.1679527 29.875381,-46.1679527 C41.7026624,-46.1679527 51.2905684,-36.6236501 51.2905684,-24.8501561 C51.2905684,-24.022569 51.2431943,-23.2059963 51.1509985,-22.4029788 C59.6745545,-28.5451017 70.1521715,-32.1644041 81.4789839,-32.1644041 C95.0742101,-32.1644041 107.446046,-26.9502683 116.686505,-18.4213061 C129.332115,-26.8278922 144.530697,-31.7288136 160.87918,-31.7288136 C184.056984,-31.7288136 204.923521,-21.8781067 219.484318,-6.15300061 C226.902535,-8.6737752 234.859756,-10.04147 243.137879,-10.04147 C246.318087,-10.04147 249.450935,-9.83961632 252.524198,-9.44807745 L252.51626,-10.4110169 C252.51626,-75.3021349 305.361231,-127.90678 370.548805,-127.90678 Z" id="path-3"></path>
        <radialGradient cx="44.4483195%" cy="50%" fx="44.4483195%" fy="50%" r="452.264789%" gradientTransform="translate(0.444483,0.500000),scale(0.114511,1.000000),translate(-0.444483,-0.500000)" id="radialGradient-5">
            <stop stop-color="#FFBF5D" offset="0%"></stop>
            <stop stop-color="#FF9A00" offset="100%"></stop>
        </radialGradient>
        <path d="M153.467529,59.9118144 L153.467529,52.915611 L159.815887,59.9118144 L163.016213,59.9118144 L156.103091,52.270128 L162.576952,44.91995 L159.481213,44.91995 L153.467529,51.8745093 L153.467529,44.91995 L150.947012,44.91995 L150.947012,59.9118144 L153.467529,59.9118144 Z M167.210103,46.9605093 L167.210103,44.6596746 L164.689586,44.6596746 L164.689586,46.9605093 L167.210103,46.9605093 Z M167.210103,59.9118144 L167.210103,48.6679161 L164.689586,48.6679161 L164.689586,59.9118144 L167.210103,59.9118144 Z M174.876242,60.2241449 C175.977879,60.2241449 176.901721,59.9638695 177.647766,59.4433187 C177.796975,59.3392085 177.938793,59.227533 178.073221,59.1082921 L178.097485,59.0848822 L178.097485,59.9118144 L180.325162,59.9118144 L180.325162,44.91995 L177.783728,44.91995 L177.783728,49.2152382 L177.673912,49.1312064 C177.011536,48.6611332 176.206542,48.4047296 175.258931,48.3619957 L174.97037,48.3555856 C173.903594,48.3555856 172.976267,48.6141259 172.188387,49.1312064 C171.400508,49.6482869 170.792167,50.3527657 170.363365,51.2446428 C169.934563,52.1365199 169.720162,53.1515941 169.720162,54.2898653 C169.720162,55.4142551 169.93282,56.4241237 170.358136,57.3194712 C170.783451,58.2148187 171.383077,58.9227678 172.157012,59.4433187 C172.930946,59.9638695 173.837357,60.2241449 174.876242,60.2241449 Z M175.26321,57.9753653 C174.607805,57.9753653 174.067445,57.8122593 173.64213,57.4860475 C173.216814,57.1598356 172.901314,56.7173674 172.695628,56.1586428 C172.489943,55.5999182 172.3871,54.9769924 172.3871,54.2898653 C172.3871,53.6096788 172.491686,52.9902233 172.700858,52.4314987 C172.910029,51.8727742 173.234245,51.4285708 173.673506,51.0988886 C174.112766,50.7692064 174.670557,50.6043653 175.346878,50.6043653 C175.988338,50.6043653 176.511267,50.7587954 176.915665,51.0676555 C177.320064,51.3765157 177.618133,51.8068377 177.809874,52.3586216 C178.001615,52.9104055 178.097485,53.5541534 178.097485,54.2898653 C178.097485,55.0186365 178.001615,55.6606492 177.809874,56.2159034 C177.618133,56.7711576 177.314835,57.2032148 176.899978,57.512075 C176.485121,57.8209352 175.939531,57.9753653 175.26321,57.9753653 Z M187.614793,60.2241449 C189.072021,60.2241449 190.21375,59.9014034 191.039978,59.2559204 C191.866205,58.6104373 192.279319,57.7220305 192.279319,56.5907 C192.279319,56.0076831 192.159046,55.5114246 191.918498,55.1019246 C191.677951,54.6924246 191.287497,54.3401852 190.747137,54.0452064 C190.206777,53.7502276 189.486878,53.488217 188.587441,53.2591746 C187.70892,53.0370729 187.048286,52.8496746 186.60554,52.6969797 C186.162793,52.5442848 185.86821,52.3915898 185.72179,52.2388949 C185.57537,52.0862 185.502159,51.9022721 185.502159,51.687111 C185.502159,51.3053737 185.683442,51.0086598 186.046006,50.7969691 C186.40857,50.5852784 186.886178,50.4967848 187.478831,50.5314882 C188.099373,50.5661915 188.596156,50.7223568 188.969179,50.9999839 C189.342201,51.277611 189.560088,51.655878 189.62284,52.1347848 L189.62284,52.1347848 L192.195651,51.6767 C192.098037,51.0034543 191.840059,50.416967 191.421716,49.9172382 C191.003372,49.4175093 190.454297,49.0323017 189.774489,48.7616153 C189.094682,48.4909288 188.315517,48.3555856 187.436997,48.3555856 C186.537559,48.3555856 185.756652,48.4961343 185.094275,48.7772318 C184.431898,49.0583293 183.915942,49.4591534 183.546405,49.9797043 C183.176869,50.5002551 182.9921,51.1110348 182.9921,51.8120432 C182.9921,52.3742382 183.114117,52.8531449 183.358151,53.2487636 C183.602184,53.6443822 184.003096,53.9862106 184.560887,54.2742487 C185.118678,54.5622869 185.871696,54.8312382 186.819941,55.0811026 C187.670572,55.3032043 188.301573,55.4871322 188.712943,55.6328865 C189.124314,55.7786407 189.391008,55.9296004 189.513025,56.0857657 C189.635042,56.2419309 189.69605,56.4484161 189.69605,56.7052212 C189.69605,57.1216619 189.530456,57.4496089 189.199267,57.6890623 C188.868079,57.9285157 188.399186,58.0482424 187.792588,58.0482424 C187.102322,58.0482424 186.530586,57.8886068 186.077381,57.5693356 C185.624176,57.2500644 185.331336,56.8128017 185.198861,56.2575475 L185.198861,56.2575475 L182.62605,56.6531661 C182.814304,57.7844966 183.344206,58.6624924 184.215754,59.2871534 C185.087302,59.9118144 186.220315,60.2241449 187.614793,60.2241449 Z M277.914171,64.9091026 L284.210236,48.6679161 L281.689719,48.6679161 L278.620374,56.7141449 L275.466864,48.6679161 L272.84176,48.6679161 L277.408175,59.8334839 L275.550532,64.9091026 L277.914171,64.9091026 Z M296.017973,54.9874034 C296.115586,53.6409119 295.96568,52.4714076 295.568254,51.4788907 C295.170828,50.4863737 294.562487,49.7176937 293.743232,49.1728504 C292.923977,48.6280072 291.928668,48.3555856 290.757307,48.3555856 C289.648698,48.3555856 288.672564,48.60545 287.828905,49.1051788 C286.985246,49.6049076 286.326356,50.3076513 285.852233,51.2134098 C285.378111,52.1191682 285.14105,53.1862975 285.14105,54.4147975 C285.14105,55.5530687 285.38334,56.559467 285.867921,57.4339924 C286.352502,58.3085178 287.027081,58.9921746 287.891657,59.4849627 C288.756232,59.9777509 289.760256,60.2241449 290.903728,60.2241449 C291.99142,60.2241449 292.986728,59.9430475 293.889652,59.3808526 C294.792576,58.8186576 295.460182,58.0308907 295.89247,57.0175517 L295.89247,57.0175517 L293.403328,56.2679585 C293.159295,56.7885093 292.812418,57.1858632 292.362699,57.4600199 C291.91298,57.7341767 291.37785,57.8712551 290.757307,57.8712551 C289.795118,57.8712551 289.063017,57.5589246 288.561006,56.9342636 C288.184497,56.4657678 287.949179,55.8528192 287.855051,55.0954177 L287.843846,54.9878992 L294.783861,54.9874034 L296.017973,54.9874034 Z M293.457613,53.0930941 L287.904605,53.0930941 L287.919381,53.0105115 C288.023348,52.4742106 288.200092,52.0229331 288.449612,51.6566788 L288.561006,51.5049182 C289.063017,50.8698462 289.82998,50.5523102 290.861893,50.5523102 C291.775276,50.5523102 292.444625,50.8334076 292.869941,51.3956026 C293.16439,51.7848144 293.358585,52.3320397 293.452527,53.0372782 L293.457613,53.0930941 Z M301.519186,60.2241449 C302.537155,60.2241449 303.386043,60.0350115 304.06585,59.6567445 C304.519055,59.4045665 304.9343,59.0559903 305.311583,58.6110157 L305.482988,58.3977551 L305.482988,59.9118144 L307.689748,59.9118144 L307.689748,53.0093102 C307.689748,52.5234627 307.668831,52.0740538 307.626997,51.6610835 C307.585162,51.2481132 307.463146,50.8438187 307.260946,50.4482 C306.89141,49.7055475 306.324904,49.1711153 305.561427,48.8449034 C304.797951,48.5186915 303.914201,48.3555856 302.910177,48.3555856 C301.578451,48.3555856 300.520392,48.6436237 299.735998,49.2197 C298.951605,49.7957763 298.41996,50.5592509 298.141065,51.5101237 L298.141065,51.5101237 L300.441952,52.2284839 C300.630207,51.6524076 300.961395,51.246378 301.435517,51.0103949 C301.90964,50.7744119 302.401193,50.6564204 302.910177,50.6564204 C303.753836,50.6564204 304.353461,50.8403483 304.709053,51.2082043 C304.993526,51.502489 305.161979,51.9278137 305.214412,52.4841785 L305.218037,52.5517212 L304.984898,52.5863626 C304.797951,52.6136915 304.613074,52.6404782 304.430266,52.6667227 L303.888054,52.7438293 C303.173385,52.8444691 302.511008,52.9537848 301.900924,53.0717763 C301.29084,53.1897678 300.759196,53.3216407 300.305991,53.4673949 C299.706366,53.6686746 299.218299,53.9272148 298.84179,54.2430157 C298.465281,54.5588165 298.186385,54.9336132 298.005103,55.3674055 C297.823821,55.8011979 297.73318,56.2887805 297.73318,56.8301534 C297.73318,57.4478737 297.877857,58.013539 298.167211,58.5271492 C298.456565,59.0407593 298.883624,59.4519945 299.448387,59.7608547 C300.013151,60.0697148 300.703417,60.2241449 301.519186,60.2241449 Z M302.021198,58.2252297 C301.623772,58.2252297 301.29084,58.1627636 301.022404,58.0378314 C300.753967,57.9128992 300.550024,57.7445877 300.410577,57.5328971 C300.271129,57.3212064 300.201405,57.0765475 300.201405,56.7989204 C300.201405,56.5559966 300.255441,56.3443059 300.363513,56.1638483 C300.471585,55.9833907 300.626721,55.8237551 300.82892,55.6849415 C301.031119,55.546128 301.278639,55.4246661 301.571479,55.3205559 C301.871292,55.2233865 302.216425,55.1348928 302.606878,55.055075 C302.997332,54.9752572 303.464482,54.8902339 304.008328,54.8000051 C304.280251,54.7548907 304.579192,54.7063059 304.905151,54.6542509 L305.185167,54.610128 L305.180735,54.8052106 C305.178643,54.8753115 305.176203,54.9485356 305.173414,55.0248831 L305.164001,55.2632954 C305.14657,55.6762657 305.071617,56.0423865 304.939142,56.3616576 C304.855473,56.6184627 304.693365,56.8926195 304.452818,57.184128 C304.21227,57.4756365 303.889798,57.7220305 303.485399,57.9233102 C303.081001,58.1245898 302.592934,58.2252297 302.021198,58.2252297 Z M312.939955,59.9118144 L312.939955,54.1961661 C312.939955,53.7658441 312.992248,53.3650199 313.096834,52.9936937 C313.20142,52.6223674 313.363528,52.29095 313.583158,51.9994415 C313.802788,51.7079331 314.086913,51.4684797 314.435532,51.2810814 C314.784152,51.072861 315.176348,50.9513992 315.612122,50.9166958 C316.047897,50.8819924 316.433121,50.9132254 316.767796,51.0103949 L316.767796,51.0103949 L316.767796,48.6679161 C316.433121,48.6123907 316.087988,48.5967742 315.732396,48.6210665 C315.376804,48.6453589 315.029928,48.7112954 314.691767,48.8188759 C314.353607,48.9264564 314.045079,49.0739458 313.766183,49.2613441 C313.438481,49.4626237 313.157842,49.7176937 312.924267,50.0265538 C312.830837,50.1500979 312.744938,50.2789169 312.666568,50.4130108 L312.636657,50.4685263 L312.636657,48.6679161 L310.408979,48.6679161 L310.408979,59.9118144 L312.939955,59.9118144 Z M323.116154,60.2241449 C324.573382,60.2241449 325.715111,59.9014034 326.541338,59.2559204 C327.367566,58.6104373 327.78068,57.7220305 327.78068,56.5907 C327.78068,56.0076831 327.660407,55.5114246 327.419859,55.1019246 C327.179312,54.6924246 326.788858,54.3401852 326.248498,54.0452064 C325.708138,53.7502276 324.988239,53.488217 324.088801,53.2591746 C323.210281,53.0370729 322.549647,52.8496746 322.106901,52.6969797 C321.664154,52.5442848 321.369571,52.3915898 321.223151,52.2388949 C321.07673,52.0862 321.00352,51.9022721 321.00352,51.687111 C321.00352,51.3053737 321.184802,51.0086598 321.547367,50.7969691 C321.909931,50.5852784 322.387539,50.4967848 322.980192,50.5314882 C323.600734,50.5661915 324.097517,50.7223568 324.47054,50.9999839 C324.843562,51.277611 325.061449,51.655878 325.124201,52.1347848 L325.124201,52.1347848 L327.697012,51.6767 C327.599398,51.0034543 327.34142,50.416967 326.923077,49.9172382 C326.504733,49.4175093 325.955658,49.0323017 325.27585,48.7616153 C324.596043,48.4909288 323.816878,48.3555856 322.938358,48.3555856 C322.03892,48.3555856 321.258013,48.4961343 320.595636,48.7772318 C319.933259,49.0583293 319.417302,49.4591534 319.047766,49.9797043 C318.678229,50.5002551 318.493461,51.1110348 318.493461,51.8120432 C318.493461,52.3742382 318.615478,52.8531449 318.859512,53.2487636 C319.103545,53.6443822 319.504457,53.9862106 320.062248,54.2742487 C320.620039,54.5622869 321.373057,54.8312382 322.321301,55.0811026 C323.171933,55.3032043 323.802934,55.4871322 324.214304,55.6328865 C324.625675,55.7786407 324.892369,55.9296004 325.014386,56.0857657 C325.136403,56.2419309 325.197411,56.4484161 325.197411,56.7052212 C325.197411,57.1216619 325.031817,57.4496089 324.700628,57.6890623 C324.36944,57.9285157 323.900547,58.0482424 323.293949,58.0482424 C322.603683,58.0482424 322.031947,57.8886068 321.578742,57.5693356 C321.125537,57.2500644 320.832697,56.8128017 320.700222,56.2575475 L320.700222,56.2575475 L318.127411,56.6531661 C318.315665,57.7844966 318.845567,58.6624924 319.717115,59.2871534 C320.588663,59.9118144 321.721676,60.2241449 323.116154,60.2241449 Z" id="path-6"></path>
        <filter x="-10.2%" y="-88.9%" width="120.4%" height="277.8%" filterUnits="objectBoundingBox" id="filter-7">
            <feOffset dx="0" dy="0" in="SourceAlpha" result="shadowOffsetOuter1"></feOffset>
            <feGaussianBlur stdDeviation="6" in="shadowOffsetOuter1" result="shadowBlurOuter1"></feGaussianBlur>
            <feColorMatrix values="0 0 0 0 1   0 0 0 0 0.97254902   0 0 0 0 0.866666667  0 0 0 0.551027098 0" type="matrix" in="shadowBlurOuter1"></feColorMatrix>
        </filter>
        <radialGradient cx="44.4483195%" cy="50%" fx="44.4483195%" fy="50%" r="97.8049603%" gradientTransform="translate(0.444483,0.500000),scale(0.529517,1.000000),translate(-0.444483,-0.500000)" id="radialGradient-8">
            <stop stop-color="#FFBF5D" offset="0%"></stop>
            <stop stop-color="#FF9A00" offset="100%"></stop>
        </radialGradient>
        <path d="M343.711303,60.4800752 C344.84083,60.4800752 345.827423,60.2284756 346.671082,59.7252765 C347.51474,59.2220773 348.171888,58.5245392 348.642524,57.632662 C349.11316,56.7407849 349.348478,55.7118294 349.348478,54.5457955 C349.348478,53.3867023 349.114903,52.3612171 348.647753,51.46934 C348.180603,50.5774629 347.525199,49.8781896 346.68154,49.3715201 C345.837881,48.8648506 344.847803,48.6115159 343.711303,48.6115159 C342.602694,48.6115159 341.62656,48.8613803 340.782901,49.3611091 C339.939242,49.8608379 339.280352,50.5549057 338.80623,51.4433125 C338.332107,52.3317192 338.095046,53.3658803 338.095046,54.5457955 C338.095046,55.7048887 338.326878,56.7303739 338.790542,57.622251 C339.254205,58.5141281 339.907867,59.2134015 340.751525,59.7200709 C341.595184,60.2267404 342.581777,60.4800752 343.711303,60.4800752 Z M343.711303,58.1271853 C342.742142,58.1271853 342.008298,57.8027087 341.509772,57.1537553 C341.011247,56.5048019 340.761984,55.635482 340.761984,54.5457955 C340.761984,53.8378464 340.86657,53.2149205 341.075741,52.677018 C341.284913,52.1391154 341.607386,51.7192044 342.04316,51.4172849 C342.478934,51.1153654 343.034982,50.9644057 343.711303,50.9644057 C344.701382,50.9644057 345.443942,51.2888824 345.938981,51.9378358 C346.43402,52.5867892 346.68154,53.4561091 346.68154,54.5457955 C346.68154,55.6007786 346.437507,56.4614226 345.94944,57.1277277 C345.461373,57.7940328 344.715327,58.1271853 343.711303,58.1271853 Z M354.425538,60.1677447 L354.425538,44.8635498 L351.90502,44.8635498 L351.90502,60.1677447 L354.425538,60.1677447 Z M362.138159,60.4800752 C363.239796,60.4800752 364.163637,60.2197998 364.909683,59.6992489 C365.058892,59.5951387 365.20071,59.4834632 365.335138,59.3642224 L365.35907,59.3408125 L365.359402,60.1677447 L367.587079,60.1677447 L367.587079,45.1758803 L365.045644,45.1758803 L365.045312,49.4701769 L364.935829,49.3871366 C364.273453,48.9170634 363.468459,48.6606599 362.520848,48.6179259 L362.232286,48.6115159 C361.165511,48.6115159 360.238184,48.8700561 359.450304,49.3871366 C358.662424,49.9042171 358.054084,50.6086959 357.625282,51.5005731 C357.19648,52.3924502 356.982079,53.4075243 356.982079,54.5457955 C356.982079,55.6701853 357.194737,56.680054 357.620053,57.5754015 C358.045368,58.4707489 358.644993,59.1786981 359.418928,59.6992489 C360.192863,60.2197998 361.099274,60.4800752 362.138159,60.4800752 Z M362.525127,58.2312955 C361.869722,58.2312955 361.329362,58.0681896 360.904047,57.7419777 C360.478731,57.4157659 360.163231,56.9732976 359.957545,56.4145731 C359.75186,55.8558485 359.649017,55.2329226 359.649017,54.5457955 C359.649017,53.8656091 359.753603,53.2461536 359.962775,52.687429 C360.171946,52.1287044 360.496162,51.684501 360.935422,51.3548188 C361.374683,51.0251366 361.932474,50.8602955 362.608795,50.8602955 C363.250255,50.8602955 363.773184,51.0147256 364.177582,51.3235858 C364.581981,51.6324459 364.88005,52.062768 365.071791,52.6145519 C365.263531,53.1663358 365.359402,53.8100837 365.359402,54.5457955 C365.359402,55.2745667 365.263531,55.9165794 365.071791,56.4718337 C364.88005,57.0270879 364.576751,57.4591451 364.161894,57.7680053 C363.747037,58.0768654 363.201448,58.2312955 362.525127,58.2312955 Z" id="path-9"></path>
        <filter x="-61.0%" y="-115.3%" width="222.1%" height="330.5%" filterUnits="objectBoundingBox" id="filter-10">
            <feOffset dx="0" dy="0" in="SourceAlpha" result="shadowOffsetOuter1"></feOffset>
            <feGaussianBlur stdDeviation="6" in="shadowOffsetOuter1" result="shadowBlurOuter1"></feGaussianBlur>
            <feColorMatrix values="0 0 0 0 1   0 0 0 0 0.97254902   0 0 0 0 0.866666667  0 0 0 0.551027098 0" type="matrix" in="shadowBlurOuter1"></feColorMatrix>
        </filter>
        <radialGradient cx="44.4483195%" cy="50%" fx="44.4483195%" fy="50%" r="102.848608%" gradientTransform="translate(0.444483,0.500000),scale(0.503549,1.000000),translate(-0.444483,-0.500000)" id="radialGradient-11">
            <stop stop-color="#FFBF5D" offset="0%"></stop>
            <stop stop-color="#FF9A00" offset="100%"></stop>
        </radialGradient>
        <path d="M216.944491,66.4194479 C218.570054,66.4194479 220.076089,66.0357276 221.462598,65.2682869 C222.849107,64.5008462 223.966681,63.4656937 224.81532,62.1628293 C225.663959,60.8599649 226.088278,59.3994479 226.088278,57.7812784 C226.088278,56.1631089 225.738663,54.7263886 225.039432,53.4711174 C224.340201,52.2158462 223.372036,51.2282869 222.134935,50.5084395 C220.897835,49.788592 219.466503,49.4286683 217.840941,49.4286683 C217.123781,49.4286683 216.352835,49.5476513 215.528101,49.7856174 C215.115734,49.9046005 214.725778,50.0592784 214.358234,50.2496513 L214.245182,50.3121174 L214.586829,44.7169395 L224.367095,44.7169395 L224.367095,40.1836852 L210.274906,40.1836852 L209.48603,53.8548378 L213.609699,55.1041598 C213.896562,54.8304988 214.326858,54.5419649 214.900586,54.2385581 C215.474314,53.9351513 216.215379,53.7834479 217.123781,53.7834479 C217.864846,53.7834479 218.54316,53.9619225 219.158722,54.3188717 C219.774284,54.6758208 220.264343,55.1577022 220.6289,55.7645157 C220.993456,56.3713293 221.175734,57.0435835 221.175734,57.7812784 C221.175734,58.5189734 220.993456,59.1912276 220.6289,59.7980412 C220.264343,60.4048547 219.774284,60.8867361 219.158722,61.2436852 C218.54316,61.6006344 217.864846,61.7791089 217.123781,61.7791089 C216.562006,61.7791089 216.015172,61.6571513 215.483278,61.4132361 C214.951385,61.1693208 214.485231,60.8272445 214.084817,60.3870073 C213.684403,59.94677 213.406503,59.4232445 213.251119,58.816431 L213.251119,58.816431 L208.553722,60.065753 C208.912302,61.3269734 209.503959,62.4335157 210.328693,63.3853801 C211.153426,64.3372445 212.136533,65.0808886 213.278012,65.6163123 C214.419491,66.1517361 215.641651,66.4194479 216.944491,66.4194479 Z M240.790054,54.8899903 L240.790054,51.1420242 L230.032657,51.1420242 L230.032657,54.8899903 L240.790054,54.8899903 Z M252.013604,65.8840242 L260.655379,44.7526344 L260.655379,40.1836852 L244.375852,40.1836852 L244.375852,44.7526344 L255.420113,44.7526344 L246.74248,65.8840242 L252.013604,65.8840242 Z" id="path-12"></path>
        <filter x="-34.5%" y="-68.6%" width="169.1%" height="237.2%" filterUnits="objectBoundingBox" id="filter-13">
            <feOffset dx="0" dy="0" in="SourceAlpha" result="shadowOffsetOuter1"></feOffset>
            <feGaussianBlur stdDeviation="6" in="shadowOffsetOuter1" result="shadowBlurOuter1"></feGaussianBlur>
            <feColorMatrix values="0 0 0 0 1   0 0 0 0 0.97254902   0 0 0 0 0.866666667  0 0 0 0.551027098 0" type="matrix" in="shadowBlurOuter1"></feColorMatrix>
        </filter>
    </defs>
    <g id="ITrace" stroke="none" stroke-width="1" fill="none" fill-rule="evenodd">
        <g id="Imath_desktop" transform="translate(-935.000000, 0.000000)">
            <g id="1" transform="translate(-181.000000, -14.000000)">
                <g id="Clouds" transform="translate(1116.000000, 14.000000)">
                    <g id="Group" transform="translate(0.453383, 0.560417)">
                        <mask id="mask-2" fill="white">
                            <use xlink:href="#path-1"></use>
                        </mask>
                        <g id="Rectangle"></g>
                        <mask id="mask-4" fill="white">
                            <use xlink:href="#path-3"></use>
                        </mask>
                        <use id="Mask" fill="#F6F6F6" transform="translate(266.947793, 41.148305) rotate(-5.000000) translate(-266.947793, -41.148305) " xlink:href="#path-3"></use>
                        <path d="M300.023584,160.917207 C284.744133,133.327549 327.638533,188.268208 381.828937,197.910839 C438.80818,208.049715 509.024429,157.080698 489.932203,180.219717 C434.351091,247.581815 330.305154,215.595752 300.023584,160.917207 Z M19.1083577,0.690680315 C22.0292278,-1.75425272 19.1781347,4.9958784 20.839295,13.390448 C21.5298908,16.8803308 24.0708637,20.14849 26.238493,22.5215775 C29.7040383,12.0849165 33.2550125,33.7437637 50.5771041,52.4650774 C59.8320543,62.4676122 76.1068678,66.7400372 85.5364061,69.0667946 C84.9614371,65.325016 84.66454,61.5211475 84.66454,57.688112 C84.66454,37.9692113 94.1967776,89.7891784 121.061073,109.193127 C125.34868,111.631518 129.983896,114.014712 134.798302,116.030736 C141.962228,118.52789 150.116309,120.297145 157.847436,121.607224 C159.058799,121.642687 160.265556,121.625425 161.464809,121.55322 C194.682124,119.553266 234.96657,85.6748066 202.674502,116.374198 C205.103957,119.668597 209.037619,125.477559 215.285175,128.911598 C222.493035,132.87348 233.077717,134.847553 238.742259,136.017317 C235.859302,130.216708 234.450141,123.776095 235.069034,117.179637 C236.374151,103.269065 239.053254,131.060993 252.998028,143.455061 C266.942801,155.849129 286.863905,158.327943 279.891519,158.327943 C275.178077,158.327943 269.968187,159.684453 265.448718,158.327943 C254.590782,155.068953 245.087333,147.429175 239.678615,137.79254 C239.39217,137.820099 239.079227,137.848836 238.742528,137.877856 C208.011498,140.526542 199.302964,128.463361 198.477697,120.323672 C181.660429,135.516162 158.433387,137.017273 137.537615,129.291339 C111.778742,123.107761 91.8783718,100.084062 86.2618552,73.1022269 L85.6827648,73.1844631 L85.6827648,73.1844631 L84.9410095,73.2871113 C57.3445665,77.0576327 19.1939939,51.5244704 25.6341884,24.6501122 C17.5887897,19.9141308 12.1121942,6.54686379 19.1083577,0.690680315 Z M-15.9368836,8.60760354 C-15.9368836,-1.16584214 -13.4881494,18.3305177 -1.99211045,29.4296374 C10.3443259,41.3401386 31.45299,45.2940442 20.9171598,45.2940442 C0.563233629,45.2940442 -15.9368836,28.8689652 -15.9368836,8.60760354 Z M15.2089173,-31.0847422 C18.3705192,-33.2123561 14.8262404,-26.795868 15.5968204,-18.2744358 C16.3674005,-9.75300371 27.9202431,-1.39341318 20.4601954,-5.73599582 C12.1609406,-10.567091 7.21803973,-25.7072462 15.2089173,-31.0847422 Z" id="Combined-Shape-Copy-2" fill="#D6D2DD" mask="url(#mask-4)" transform="translate(238.597433, 93.388914) rotate(-5.000000) translate(-238.597433, -93.388914) "></path>
                        <g id="Kidsyearsago" fill-rule="nonzero" mask="url(#mask-4)">
                            <use fill="black" fill-opacity="1" filter="url(#filter-7)" xlink:href="#path-6"></use>
                            <use fill="#FFFFF1" xlink:href="#path-6"></use>
                            <use fill="url(#radialGradient-5)" xlink:href="#path-6"></use>
                        </g>
                        <g id="old" fill-rule="nonzero" mask="url(#mask-4)">
                            <use fill="black" fill-opacity="1" filter="url(#filter-10)" xlink:href="#path-9"></use>
                            <use fill="#FFFFF1" xlink:href="#path-9"></use>
                            <use fill="url(#radialGradient-8)" xlink:href="#path-9"></use>
                        </g>
                        <g id="5-7" fill-rule="nonzero" mask="url(#mask-4)">
                            <use fill="black" fill-opacity="1" filter="url(#filter-13)" xlink:href="#path-12"></use>
                            <use fill="#FFFFF1" xlink:href="#path-12"></use>
                            <use fill="url(#radialGradient-11)" xlink:href="#path-12"></use>
                        </g>
                    </g>
                </g>
            </g>
        </g>
    </g>
</svg>