<?xml version="1.0" encoding="UTF-8"?>
<svg width="211px" height="69px" viewBox="0 0 211 69" version="1.1" xmlns="http://www.w3.org/2000/svg" xmlns:xlink="http://www.w3.org/1999/xlink">
    <title>E7DEA313-F876-4F74-992C-7E92C862E136</title>
    <defs>
        <radialGradient cx="50%" cy="50%" fx="50%" fy="50%" r="215.21358%" gradientTransform="translate(0.500000,0.500000),scale(0.240642,1.000000),translate(-0.500000,-0.500000)" id="radialGradient-1">
            <stop stop-color="#FFBF5D" offset="0%"></stop>
            <stop stop-color="#FF9A00" offset="100%"></stop>
        </radialGradient>
        <rect id="path-2" x="0" y="0" width="187" height="45" rx="22.5"></rect>
        <filter x="-5.1%" y="-21.1%" width="110.2%" height="142.2%" filterUnits="objectBoundingBox" id="filter-3">
            <feMorphology radius="2" operator="dilate" in="SourceAlpha" result="shadowSpreadOuter1"></feMorphology>
            <feOffset dx="0" dy="0" in="shadowSpreadOuter1" result="shadowOffsetOuter1"></feOffset>
            <feGaussianBlur stdDeviation="2.5" in="shadowOffsetOuter1" result="shadowBlurOuter1"></feGaussianBlur>
            <feComposite in="shadowBlurOuter1" in2="SourceAlpha" operator="out" result="shadowBlurOuter1"></feComposite>
            <feColorMatrix values="0 0 0 0 1   0 0 0 0 0.97254902   0 0 0 0 0.866666667  0 0 0 0.551027098 0" type="matrix" in="shadowBlurOuter1"></feColorMatrix>
        </filter>
        <linearGradient x1="86.7245433%" y1="30.3771074%" x2="-50.4810997%" y2="138.380609%" id="linearGradient-4">
            <stop stop-color="#FF3944" offset="0%"></stop>
            <stop stop-color="#C31161" offset="100%"></stop>
        </linearGradient>
    </defs>
    <g id="ITrace" stroke="none" stroke-width="1" fill="none" fill-rule="evenodd">
        <g id="320_how_it_works-copy" transform="translate(-55.000000, -1237.000000)">
            <g id="2" transform="translate(0.000000, 565.000000)">
                <g id="Buttons/GooglePlay/Mobile" transform="translate(55.000000, 672.000000)">
                    <g id="GooglePlay" transform="translate(12.000000, 12.000000)">
                        <g id="Rectangle">
                            <use fill="black" fill-opacity="1" filter="url(#filter-3)" xlink:href="#path-2"></use>
                            <rect stroke-opacity="0.28630354" stroke="#FFFFFF" stroke-width="2" fill="url(#radialGradient-1)" fill-rule="evenodd" x="-1" y="-1" width="189" height="47" rx="23.5"></rect>
                        </g>
                        <rect id="Rectangle" x="42" y="10" width="104" height="26"></rect>
                        <path d="M64.813405,17 C65.387119,17 65.8849814,16.8793333 66.3069921,16.638 C66.7290029,16.3966667 67.0558544,16.0626667 67.2875465,15.636 C67.5192387,15.2093333 67.6350848,14.72 67.6350848,14.168 C67.6350848,14.1546667 67.6337057,14.104 67.6309475,14.016 C67.6281892,13.928 67.6240519,13.8666667 67.6185354,13.832 L67.6185354,13.832 L65.4753827,13.832 L65.4753827,14.672 L66.4187009,14.672 C66.3580196,14.976 66.2559647,15.2253333 66.1125362,15.42 C65.9691077,15.6146667 65.7932699,15.7573333 65.5850228,15.848 C65.3767756,15.9386667 65.1443939,15.9813333 64.8878775,15.976 C64.5099986,15.9706667 64.1955592,15.8866667 63.9445594,15.724 C63.6935595,15.5613333 63.5053096,15.3333333 63.3798097,15.04 C63.2543098,14.7466667 63.1915598,14.4 63.1915598,14 C63.1915598,13.6 63.2543098,13.2506667 63.3798097,12.952 C63.5053096,12.6533333 63.6935595,12.4226667 63.9445594,12.26 C64.1955592,12.0973333 64.5099986,12.0186667 64.8878775,12.024 C65.2685147,12.0266667 65.5808854,12.1286667 65.8249897,12.33 C66.0690939,12.5313333 66.2449317,12.8 66.3525031,13.136 L66.3525031,13.136 L67.5026893,12.976 C67.3537443,12.3466667 67.0599917,11.86 66.6214315,11.516 C66.1828713,11.172 65.5801958,11 64.813405,11 C64.2948559,11 63.8225072,11.1173333 63.3963591,11.352 C62.970211,11.5866667 62.6309475,11.9273333 62.3785685,12.374 C62.1261895,12.8206667 62,13.3626667 62,14 C62,14.488 62.075162,14.9186667 62.2254861,15.292 C62.3758102,15.6653333 62.5812991,15.9786667 62.8419528,16.232 C63.1026065,16.4853333 63.4025652,16.6766667 63.7418287,16.806 C64.0810923,16.9353333 64.4382844,17 64.813405,17 Z M72.3516756,16.88 L72.3516756,15.864 L69.5879189,15.864 L69.5879189,14.384 L71.8551924,14.384 L71.8551924,13.368 L69.5879189,13.368 L69.5879189,12.136 L72.3516756,12.136 L72.3516756,11.12 L68.4625569,11.12 L68.4625569,16.88 L72.3516756,16.88 Z M75.8518825,16.88 L75.8518825,12.136 L77.7302441,12.136 L77.7302441,11.12 L72.8481589,11.12 L72.8481589,12.136 L74.7265205,12.136 L74.7265205,16.88 L75.8518825,16.88 Z M81.2552751,16.88 L81.2552751,11.12 L80.1299131,11.12 L80.1299131,16.88 L81.2552751,16.88 Z M85.0037236,16.88 L85.0037236,12.136 L86.8820852,12.136 L86.8820852,11.12 L82,11.12 L82,12.136 L83.8783616,12.136 L83.8783616,16.88 L85.0037236,16.88 Z M93.4108399,17 C94.0066198,17 94.520342,16.8746667 94.9520066,16.624 C95.3836712,16.3733333 95.7160392,16.0226667 95.9491105,15.572 C96.1821818,15.1213333 96.2987174,14.5973333 96.2987174,14 C96.2987174,13.4026667 96.1821818,12.8786667 95.9491105,12.428 C95.7160392,11.9773333 95.3836712,11.6266667 94.9520066,11.376 C94.520342,11.1253333 94.0066198,11 93.4108399,11 C92.81506,11 92.3013377,11.1253333 91.8696731,11.376 C91.4380086,11.6266667 91.1056406,11.9773333 90.8725693,12.428 C90.639498,12.8786667 90.5229624,13.4026667 90.5229624,14 C90.5229624,14.5973333 90.639498,15.1213333 90.8725693,15.572 C91.1056406,16.0226667 91.4380086,16.3733333 91.8696731,16.624 C92.3013377,16.8746667 92.81506,17 93.4108399,17 Z M93.4108399,15.976 C93.032961,15.9706667 92.7185216,15.8866667 92.4675217,15.724 C92.2165219,15.5613333 92.028272,15.3333333 91.902772,15.04 C91.7772721,14.7466667 91.7145221,14.4 91.7145221,14 C91.7145221,13.6 91.7772721,13.2506667 91.902772,12.952 C92.028272,12.6533333 92.2165219,12.4226667 92.4675217,12.26 C92.7185216,12.0973333 93.032961,12.0186667 93.4108399,12.024 C93.7887188,12.0293333 94.1031582,12.1133333 94.354158,12.276 C94.6051579,12.4386667 94.7934078,12.6666667 94.9189077,12.96 C95.0444077,13.2533333 95.1071576,13.6 95.1071576,14 C95.1071576,14.4 95.0444077,14.7493333 94.9189077,15.048 C94.7934078,15.3466667 94.6051579,15.5773333 94.354158,15.74 C94.1031582,15.9026667 93.7887188,15.9813333 93.4108399,15.976 Z M98.268101,16.88 L98.268101,13.04 L100.858089,16.88 L102,16.88 L102,11.12 L100.858089,11.12 L100.858089,14.96 L98.268101,11.12 L97.1261895,11.12 L97.1261895,16.88 L98.268101,16.88 Z" id="GETITON" fill="#FFFFFF" fill-rule="nonzero"></path>
                        <path d="M66.9309392,33.6060606 C67.9364641,33.6060606 68.809047,33.3927609 69.5486878,32.9661616 C70.2883287,32.5395623 70.8611878,31.9491582 71.2672652,31.1949495 C71.6733425,30.4407407 71.8763812,29.5757576 71.8763812,28.6 C71.8763812,28.576431 71.8739641,28.4868687 71.8691298,28.3313131 C71.8642956,28.1757576 71.8570442,28.0673401 71.8473757,28.0060606 L71.8473757,28.0060606 L68.0911602,28.0060606 L68.0911602,29.4909091 L69.7444751,29.4909091 C69.6381215,30.0282828 69.4592541,30.4690236 69.2078729,30.8131313 C68.9564917,31.1572391 68.648308,31.4094276 68.2833218,31.569697 C67.9183356,31.7299663 67.5110497,31.8053872 67.0614641,31.7959596 C66.3991713,31.786532 65.8480663,31.6380471 65.4081492,31.3505051 C64.968232,31.062963 64.6382942,30.6599327 64.4183356,30.1414141 C64.1983771,29.6228956 64.0883978,29.010101 64.0883978,28.3030303 C64.0883978,27.5959596 64.1983771,26.9784512 64.4183356,26.4505051 C64.6382942,25.9225589 64.968232,25.5148148 65.4081492,25.2272727 C65.8480663,24.9397306 66.3991713,24.8006734 67.0614641,24.810101 C67.7285912,24.8148148 68.2760704,24.9951178 68.7039019,25.3510101 C69.1317334,25.7069024 69.4399171,26.1818182 69.628453,26.7757576 L69.628453,26.7757576 L71.644337,26.4929293 C71.3832873,25.3804714 70.8684392,24.520202 70.0997928,23.9121212 C69.3311464,23.3040404 68.2748619,23 66.9309392,23 C66.0220994,23 65.1942334,23.2074074 64.4473412,23.6222222 C63.7004489,24.037037 63.1058356,24.6392256 62.6635014,25.4287879 C62.2211671,26.2183502 62,27.176431 62,28.3030303 C62,29.1656566 62.1317334,29.926936 62.3952003,30.5868687 C62.6586671,31.2468013 63.0188191,31.8006734 63.4756561,32.2484848 C63.9324931,32.6962963 64.4582182,33.0345118 65.0528315,33.2631313 C65.6474448,33.4917508 66.2734807,33.6060606 66.9309392,33.6060606 Z M76.8508287,33.6060606 C77.6339779,33.6060606 78.3240677,33.4351852 78.9210981,33.0934343 C79.5181285,32.7516835 79.984634,32.2779461 80.3206146,31.6722222 C80.6565953,31.0664983 80.8245856,30.3676768 80.8245856,29.5757576 C80.8245856,28.7885522 80.6578039,28.0920875 80.3242403,27.4863636 C79.9906768,26.8806397 79.5253798,26.4057239 78.9283494,26.0616162 C78.3313191,25.7175084 77.6388122,25.5454545 76.8508287,25.5454545 C76.0773481,25.5454545 75.3933011,25.7151515 74.7986878,26.0545455 C74.2040746,26.3939394 73.7375691,26.8664983 73.3991713,27.4722222 C73.0607735,28.0779461 72.8915746,28.7791246 72.8915746,29.5757576 C72.8915746,30.362963 73.0571478,31.0594276 73.3882942,31.6651515 C73.7194406,32.2708754 74.1823204,32.7457912 74.7769337,33.089899 C75.371547,33.4340067 76.0628453,33.6060606 76.8508287,33.6060606 Z M76.8508287,31.810101 C76.2368785,31.810101 75.7715815,31.6085859 75.4549378,31.2055556 C75.1382942,30.8025253 74.9799724,30.2592593 74.9799724,29.5757576 C74.9799724,29.1326599 75.0464434,28.743771 75.1793854,28.4090909 C75.3123273,28.0744108 75.5165746,27.8127946 75.7921271,27.6242424 C76.0676796,27.4356902 76.4205801,27.3414141 76.8508287,27.3414141 C77.4744475,27.3414141 77.9445787,27.5441077 78.2612224,27.9494949 C78.577866,28.3548822 78.7361878,28.8969697 78.7361878,29.5757576 C78.7361878,30.2309764 78.5802831,30.7671717 78.2684738,31.1843434 C77.9566644,31.6015152 77.484116,31.810101 76.8508287,31.810101 Z M85.9440608,33.6060606 C86.7272099,33.6060606 87.4172997,33.4351852 88.0143301,33.0934343 C88.6113605,32.7516835 89.077866,32.2779461 89.4138467,31.6722222 C89.7498273,31.0664983 89.9178177,30.3676768 89.9178177,29.5757576 C89.9178177,28.7885522 89.7510359,28.0920875 89.4174724,27.4863636 C89.0839088,26.8806397 88.6186119,26.4057239 88.0215815,26.0616162 C87.4245511,25.7175084 86.7320442,25.5454545 85.9440608,25.5454545 C85.1705801,25.5454545 84.4865331,25.7151515 83.8919199,26.0545455 C83.2973066,26.3939394 82.8308011,26.8664983 82.4924033,27.4722222 C82.1540055,28.0779461 81.9848066,28.7791246 81.9848066,29.5757576 C81.9848066,30.362963 82.1503798,31.0594276 82.4815262,31.6651515 C82.8126727,32.2708754 83.2755525,32.7457912 83.8701657,33.089899 C84.464779,33.4340067 85.1560773,33.6060606 85.9440608,33.6060606 Z M85.9440608,31.810101 C85.3301105,31.810101 84.8648135,31.6085859 84.5481699,31.2055556 C84.2315262,30.8025253 84.0732044,30.2592593 84.0732044,29.5757576 C84.0732044,29.1326599 84.1396754,28.743771 84.2726174,28.4090909 C84.4055594,28.0744108 84.6098066,27.8127946 84.8853591,27.6242424 C85.1609116,27.4356902 85.5138122,27.3414141 85.9440608,27.3414141 C86.5676796,27.3414141 87.0378108,27.5441077 87.3544544,27.9494949 C87.6710981,28.3548822 87.8294199,28.8969697 87.8294199,29.5757576 C87.8294199,30.2309764 87.6735152,30.7671717 87.3617058,31.1843434 C87.0498964,31.6015152 86.5773481,31.810101 85.9440608,31.810101 Z M94.8632597,37 C95.4385359,37 95.972721,36.9257576 96.4658149,36.7772727 C96.9589088,36.6287879 97.3758633,36.4037037 97.7166782,36.1020202 C98.0574931,35.8003367 98.2907459,35.4161616 98.4164365,34.9494949 C98.4599448,34.7845118 98.4901588,34.6183502 98.5070787,34.4510101 C98.5239986,34.28367 98.5324586,34.1057239 98.5324586,33.9171717 L98.5324586,33.9171717 L98.5324586,25.7575758 L96.8066298,25.7575758 L96.8066298,26.1784512 L96.6688536,26.0757576 C96.2074021,25.7543618 95.6480669,25.579055 94.990848,25.5498372 L94.7907459,25.5454545 C94.0414365,25.5454545 93.3888122,25.7198653 92.8328729,26.0686869 C92.2769337,26.4175084 91.8454765,26.8947811 91.5385014,27.5005051 C91.2315262,28.106229 91.0780387,28.7979798 91.0780387,29.5757576 C91.0780387,30.3393939 91.2291091,31.0252525 91.53125,31.6333333 C91.8333909,32.2414141 92.2551796,32.7222222 92.796616,33.0757576 C93.3380525,33.4292929 93.9689227,33.6060606 94.6892265,33.6060606 C95.4675414,33.6060606 96.1177486,33.4292929 96.6398481,33.0757576 L96.5600829,33.1265993 L96.5600829,33.8888889 C96.5683702,34.1313131 96.5153907,34.3399711 96.4011444,34.5148629 L96.3389157,34.5994949 C96.1818025,34.790404 95.972721,34.9341751 95.7116713,35.0308081 C95.4506215,35.1274411 95.1726519,35.1757576 94.8777624,35.1757576 C94.6022099,35.1757576 94.347203,35.116835 94.1127417,34.9989899 C93.8782804,34.8811448 93.6982044,34.7090909 93.5725138,34.4828283 L93.5725138,34.4828283 L91.7451657,35.3454545 C91.9433702,35.6754209 92.2007942,35.9641414 92.5174378,36.2116162 C92.8340815,36.4590909 93.1930249,36.6523569 93.594268,36.7914141 C93.995511,36.9304714 94.4185083,37 94.8632597,37 Z M95.0082873,31.8949495 C94.5828729,31.8949495 94.2348066,31.7912458 93.9640884,31.5838384 C93.6933702,31.376431 93.4927486,31.097138 93.3622238,30.7459596 C93.2316989,30.3947811 93.1664365,30.0047138 93.1664365,29.5757576 C93.1664365,29.1515152 93.234116,28.7638047 93.3694751,28.4126263 C93.5048343,28.0614478 93.7139157,27.7809764 93.9967196,27.5712121 C94.2795235,27.3614478 94.640884,27.2565657 95.0808011,27.2565657 C95.4917127,27.2565657 95.8240677,27.3531987 96.077866,27.5464646 C96.3316644,27.7397306 96.5165746,28.0107744 96.6325967,28.359596 C96.7486188,28.7084175 96.8066298,29.1138047 96.8066298,29.5757576 C96.8066298,30.0377104 96.7486188,30.4430976 96.6325967,30.7919192 C96.5165746,31.1407407 96.3268301,31.4117845 96.0633633,31.6050505 C95.7998964,31.7983165 95.4482044,31.8949495 95.0082873,31.8949495 Z M102.680249,33.3939394 L102.680249,23 L100.707873,23 L100.707873,33.3939394 L102.680249,33.3939394 Z M112.041782,30.1131313 C112.123964,29.1892256 112.027279,28.3855219 111.751727,27.7020202 C111.476174,27.0185185 111.05076,26.4882155 110.475483,26.1111111 C109.900207,25.7340067 109.201657,25.5454545 108.379834,25.5454545 C107.606354,25.5454545 106.922307,25.71633 106.327693,26.0580808 C105.73308,26.3998316 105.266575,26.8794613 104.928177,27.4969697 C104.589779,28.1144781 104.42058,28.840404 104.42058,29.6747475 C104.42058,30.4383838 104.593405,31.1159933 104.939054,31.7075758 C105.284703,32.2991582 105.763294,32.763468 106.374827,33.1005051 C106.98636,33.4375421 107.69337,33.6060606 108.495856,33.6060606 C109.25,33.6060606 109.944924,33.4127946 110.580628,33.0262626 C111.216333,32.6397306 111.68163,32.0976431 111.976519,31.4 L111.976519,31.4 L110.004144,30.8484848 C109.859116,31.159596 109.648826,31.3976431 109.373273,31.5626263 C109.097721,31.7276094 108.766575,31.810101 108.379834,31.810101 C107.765884,31.810101 107.300587,31.6156566 106.983943,31.2267677 C106.772848,30.9675084 106.632117,30.6364946 106.561752,30.2337262 L106.542818,30.1131313 L111.091851,30.1131313 L112.041782,30.1131313 Z M110.04558,28.6848485 L106.595304,28.6848485 L106.627719,28.5513889 C106.693687,28.3063692 106.787141,28.094289 106.908081,27.915148 L106.983943,27.8116162 C107.300587,27.4132997 107.79489,27.2141414 108.466851,27.2141414 C109.042127,27.2141414 109.456664,27.3850168 109.710463,27.7267677 C109.858512,27.9261223 109.96338,28.1996621 110.025067,28.5473871 L110.04558,28.6848485 Z M118.546271,33.3939394 L118.546271,29.9434343 L121.045387,29.9428687 C121.13511,29.9413603 121.249586,29.936835 121.388812,29.9292929 C121.562845,29.9198653 121.717541,29.9057239 121.852901,29.8868687 C122.471685,29.7925926 122.98049,29.5922559 123.379316,29.2858586 C123.778142,28.9794613 124.073032,28.5941077 124.263985,28.129798 C124.454938,27.6654882 124.550414,27.1481481 124.550414,26.5777778 C124.550414,26.0074074 124.456146,25.4900673 124.26761,25.0257576 C124.079075,24.5614478 123.785394,24.1760943 123.386568,23.869697 C122.987742,23.5632997 122.476519,23.362963 121.852901,23.2686869 C121.717541,23.2451178 121.564054,23.229798 121.392438,23.2227273 C121.220822,23.2156566 121.084254,23.2121212 120.982735,23.2121212 L120.982735,23.2121212 L116.573895,23.2121212 L116.573895,33.3939394 L118.546271,33.3939394 Z M120.895718,28.1474747 L118.546271,28.1474747 L118.546271,25.0080808 L120.895718,25.0080808 C120.997238,25.0080808 121.108425,25.0127946 121.229282,25.0222222 C121.350138,25.0316498 121.461326,25.0505051 121.562845,25.0787879 C121.828729,25.1494949 122.034185,25.2685185 122.179213,25.4358586 C122.32424,25.6031987 122.424551,25.7893939 122.480145,25.9944444 C122.535739,26.1994949 122.563536,26.3939394 122.563536,26.5777778 C122.563536,26.7616162 122.535739,26.9560606 122.480145,27.1611111 C122.424551,27.3661616 122.32424,27.5523569 122.179213,27.719697 C122.034185,27.887037 121.828729,28.0060606 121.562845,28.0767677 C121.461326,28.1050505 121.350138,28.1239057 121.229282,28.1333333 C121.108425,28.1427609 120.997238,28.1474747 120.895718,28.1474747 L120.895718,28.1474747 Z M128.118094,33.3939394 L128.118094,23 L126.145718,23 L126.145718,33.3939394 L128.118094,33.3939394 Z M132.468923,33.6060606 C133.145718,33.6060606 133.705283,33.4917508 134.147617,33.2631313 C134.491655,33.0853161 134.817415,32.8212412 135.124898,32.4709066 L135.137431,32.4558923 L135.137431,33.3939394 L136.86326,33.3939394 L136.86326,28.7272727 C136.86326,28.3784512 136.848757,28.0626263 136.819751,27.779798 C136.790746,27.4969697 136.698895,27.2141414 136.544199,26.9313131 C136.268646,26.4222222 135.862569,26.0639731 135.325967,25.8565657 C134.789365,25.6491582 134.175414,25.5454545 133.484116,25.5454545 C132.541436,25.5454545 131.796961,25.7434343 131.250691,26.1393939 C130.70442,26.5353535 130.332182,27.0491582 130.133978,27.6808081 L130.133978,27.6808081 L131.917818,28.2323232 C132.043508,27.8835017 132.263467,27.6407407 132.577693,27.5040404 C132.89192,27.3673401 133.194061,27.2989899 133.484116,27.2989899 C134.006215,27.2989899 134.378453,27.4050505 134.600829,27.6171717 C134.773788,27.7821549 134.879485,28.0198528 134.91792,28.3302656 L134.918508,28.3387205 L134.603439,28.3846263 C134.493798,28.4005589 134.386188,28.4161616 134.280608,28.4314343 L133.969959,28.4762626 C133.462362,28.5493266 133.007942,28.6259259 132.606699,28.7060606 C132.205456,28.7861953 131.859807,28.8781145 131.569751,28.9818182 C131.149171,29.1326599 130.814399,29.3200337 130.565435,29.5439394 C130.316471,29.7678451 130.136395,30.0259259 130.025207,30.3181818 C129.914019,30.6104377 129.858425,30.9333333 129.858425,31.2868687 C129.858425,31.7111111 129.958736,32.0988215 130.159358,32.45 C130.359979,32.8011785 130.654869,33.0816498 131.044026,33.2914141 C131.433184,33.5011785 131.908149,33.6060606 132.468923,33.6060606 Z M132.889503,32.0929293 C132.662293,32.0929293 132.466506,32.0599327 132.302141,31.9939394 C132.137776,31.9279461 132.010877,31.8324916 131.921443,31.7075758 C131.83201,31.5826599 131.787293,31.4329966 131.787293,31.2585859 C131.787293,31.1313131 131.81509,31.0158249 131.870684,30.9121212 C131.926278,30.8084175 132.013294,30.712963 132.131733,30.6257576 C132.250173,30.5385522 132.406077,30.4572391 132.599448,30.3818182 C132.768646,30.3205387 132.964434,30.2639731 133.186809,30.2121212 C133.409185,30.1602694 133.701657,30.1025253 134.064227,30.0388889 C134.290832,29.9991162 134.560871,29.9533591 134.874342,29.9016177 L134.901243,29.8969697 L134.901326,29.9032727 C134.898619,29.9915152 134.894558,30.0871111 134.889144,30.1900606 L134.880007,30.35 C134.863087,30.6257576 134.803867,30.8673401 134.702348,31.0747475 C134.649171,31.183165 134.54886,31.3175084 134.401416,31.4777778 C134.253971,31.6380471 134.055767,31.7806397 133.806802,31.9055556 C133.557838,32.0304714 133.252072,32.0929293 132.889503,32.0929293 Z M141.576657,36.7878788 L146,25.7575758 L144.027624,25.7575758 L141.982044,30.9535354 L139.923343,25.7575758 L137.878453,25.7575758 L141.037293,33.3340067 L139.749309,36.7878788 L141.576657,36.7878788 Z" fill="#FFFFFF" fill-rule="nonzero"></path>
                        <g id="Group-6" transform="translate(34.000000, 11.000000)">
                            <g transform="translate(-0.000000, -0.000000)">
                                <path d="M0.942626087,22.579284 L0.876430435,22.515252 C0.620473913,22.2413373 0.468665217,21.8171253 0.468665217,21.2657387 L0.468665217,21.3955813 L0.468665217,1.72708533 C0.468665217,1.72530667 0.468665217,1.72441733 0.468665217,1.72263867 C0.468665217,1.72441733 0.468665217,1.726196 0.468665217,1.72708533 L0.468665217,1.85781733 C0.468665217,1.26107467 0.645186957,0.811961333 0.941743478,0.542493333 L11.8763826,11.5613333 L0.942626087,22.579284 M0.468665217,1.72174933 C0.468665217,1.672836 0.469547826,1.624812 0.472195652,1.57767733 C0.469547826,1.624812 0.468665217,1.672836 0.468665217,1.72174933" id="Fill-21" fill="#00CEFF"></path>
                                <path d="M15.5215565,15.365012 L15.5215565,15.365012 L15.6045217,15.3178773 L19.9231261,12.8455307 C20.3344217,12.6098573 20.608913,12.323492 20.7457174,12.0211187 C20.608913,12.323492 20.3353043,12.6098573 19.9231261,12.8455307 L15.6045217,15.3178773 L15.5215565,15.365012 M15.5224391,15.2351693 L11.8763826,11.5613333 L15.5224391,7.88749733 L19.9231261,10.4069787 C20.4818174,10.7271387 20.7960261,11.1397893 20.8481,11.560444 C20.8481,11.5613333 20.8481,11.5613333 20.8481,11.5622227 C20.7960261,11.9828773 20.4818174,12.395528 19.9231261,12.715688 L15.5224391,15.2351693" id="Fill-24" fill="#FFCA00"></path>
                                <path d="M1.72196957,22.99816 C1.41658696,22.99816 1.15003913,22.8985547 0.941743478,22.7091267 L0.942626087,22.7091267 C1.15003913,22.8976653 1.41746957,22.99816 1.72285217,22.99816 C1.74933043,22.99816 1.7758087,22.99816 1.80316957,22.9963813 C1.7758087,22.99816 1.74844783,22.99816 1.72196957,22.99816 M1.72196957,22.8683173 C1.41658696,22.8683173 1.15003913,22.7678227 0.942626087,22.579284 L11.8763826,11.5613333 L15.5224391,15.2351693 L2.71137391,22.5695013 C2.35656522,22.7722693 2.02117391,22.8683173 1.72196957,22.8683173" id="Fill-27" fill="url(#linearGradient-4)"></path>
                                <path d="M11.8763826,11.5613333 L11.8763826,11.5613333 L0.941743478,0.542493333 C1.14915652,0.353954667 1.41570435,0.254349333 1.72108696,0.254349333 C2.0194087,0.254349333 2.35568261,0.350397333 2.71137391,0.553165333 L15.5224391,7.88749733 L11.8763826,11.5613333 M15.6045217,7.80478933 L2.71137391,0.423322667 C2.35656522,0.220554667 2.0194087,0.124506667 1.72108696,0.124506667 C1.71932174,0.124506667 1.71843913,0.124506667 1.71667391,0.124506667 C1.71843913,0.124506667 1.72020435,0.124506667 1.72196957,0.124506667 C2.0202913,0.124506667 2.35656522,0.219665333 2.71137391,0.423322667 L15.6045217,7.80478933" id="Fill-30" fill="#00F076"></path>
                            </g>
                        </g>
                    </g>
                </g>
            </g>
        </g>
    </g>
</svg>